

<svg
   xmlns:dc="http://purl.org/dc/elements/1.1/"
   xmlns:cc="http://creativecommons.org/ns#"
   xmlns:rdf="http://www.w3.org/1999/02/22-rdf-syntax-ns#"
   xmlns:svg="http://www.w3.org/2000/svg"
   xmlns="http://www.w3.org/2000/svg"
   viewBox="0 0 1000 1000"
   width="40"
   class="bg-svg"
   xml:space="preserve"
   version="1.1"
   id="svg2"><metadata
     id="metadata8"><rdf:RDF><cc:Work
         rdf:about=""><dc:format>image/svg+xml</dc:format><dc:type
           rdf:resource="http://purl.org/dc/dcmitype/StillImage" /></cc:Work></rdf:RDF></metadata><defs
     id="defs6" /><g
     transform="matrix(1.25,0,0,-1.25,0,1000)"
     id="g10"><path
       id="path12"
       style="fill:#ed1d24;fill-opacity:1;fill-rule:nonzero;stroke:none"
       d="M 0,0 800,0 800,800 0,800 0,0 Z" /><g
       transform="translate(423.4641,49.2384)"
       id="g14"><path
         id="path16"
         style="fill:#ffffff;fill-opacity:1;fill-rule:nonzero;stroke:none"
         d="m 0,0 326.667,0 0,183.658 -148.111,0 0,516.342 L 0,700 0,0 Z" /></g><g
       transform="translate(491,119)"
       id="g18"><path
         id="path20"
         style="fill:#ed1d24;fill-opacity:1;fill-rule:nonzero;stroke:none"
         d="M 0,0 0,560 44,560 44,44 192,44 192,0 0,0 Z" /></g><g
       transform="translate(376.7974,749.2384)"
       id="g22"><path
         id="path24"
         style="fill:#ffffff;fill-opacity:1;fill-rule:nonzero;stroke:none"
         d="m 0,0 -178.556,0 0,-516.342 -148.111,0 0,-183.658 L 0,-700 0,0 Z" /></g><g
       transform="translate(309,119)"
       id="g26"><path
         id="path28"
         style="fill:#ed1d24;fill-opacity:1;fill-rule:nonzero;stroke:none"
         d="m 0,0 0,560 -44,0 0,-516 -148,0 0,-44 192,0 z" /></g></g></svg>